<?xml version="1.0" encoding="UTF-8"?>
<svg width="700pt" height="700pt" version="1.1" viewBox="0 0 700 700" xmlns="http://www.w3.org/2000/svg" xmlns:xlink="http://www.w3.org/1999/xlink">
 <defs>
  <symbol id="v" overflow="visible">
   <path d="m18.766-1.125c-0.96875 0.5-1.9805 0.875-3.0312 1.125-1.043 0.25781-2.1367 0.39062-3.2812 0.39062-3.3984 0-6.0898-0.94531-8.0781-2.8438-1.9922-1.9062-2.9844-4.4844-2.9844-7.7344 0-3.2578 0.99219-5.8359 2.9844-7.7344 1.9883-1.9062 4.6797-2.8594 8.0781-2.8594 1.1445 0 2.2383 0.13281 3.2812 0.39062 1.0508 0.25 2.0625 0.625 3.0312 1.125v4.2188c-0.98047-0.65625-1.9453-1.1406-2.8906-1.4531-0.94922-0.3125-1.9492-0.46875-3-0.46875-1.875 0-3.3516 0.60547-4.4219 1.8125-1.0742 1.1992-1.6094 2.8555-1.6094 4.9688 0 2.1055 0.53516 3.7617 1.6094 4.9688 1.0703 1.1992 2.5469 1.7969 4.4219 1.7969 1.0508 0 2.0508-0.14844 3-0.45312 0.94531-0.3125 1.9102-0.80078 2.8906-1.4688z"/>
  </symbol>
  <symbol id="d" overflow="visible">
   <path d="m13.734-11.141c-0.4375-0.19531-0.87109-0.34375-1.2969-0.4375-0.41797-0.10156-0.83984-0.15625-1.2656-0.15625-1.2617 0-2.2305 0.40625-2.9062 1.2188-0.67969 0.80469-1.0156 1.9531-1.0156 3.4531v7.0625h-4.8906v-15.312h4.8906v2.5156c0.625-1 1.3438-1.7266 2.1562-2.1875 0.82031-0.46875 1.8008-0.70312 2.9375-0.70312 0.16406 0 0.34375 0.011719 0.53125 0.03125 0.19531 0.011719 0.47656 0.039062 0.84375 0.078125z"/>
  </symbol>
  <symbol id="a" overflow="visible">
   <path d="m17.641-7.7031v1.4062h-11.453c0.125 1.1484 0.53906 2.0078 1.25 2.5781 0.70703 0.57422 1.7031 0.85938 2.9844 0.85938 1.0312 0 2.082-0.14844 3.1562-0.45312 1.082-0.3125 2.1914-0.77344 3.3281-1.3906v3.7656c-1.1562 0.4375-2.3125 0.76562-3.4688 0.98438-1.1562 0.22656-2.3125 0.34375-3.4688 0.34375-2.7734 0-4.9297-0.70312-6.4688-2.1094-1.5312-1.4062-2.2969-3.3789-2.2969-5.9219 0-2.5 0.75391-4.4609 2.2656-5.8906 1.5078-1.4375 3.582-2.1562 6.2188-2.1562 2.4062 0 4.332 0.73047 5.7812 2.1875 1.4453 1.4492 2.1719 3.3828 2.1719 5.7969zm-5.0312-1.625c0-0.92578-0.27344-1.6719-0.8125-2.2344-0.54297-0.57031-1.25-0.85938-2.125-0.85938-0.94922 0-1.7188 0.26562-2.3125 0.79688s-0.96484 1.2969-1.1094 2.2969z"/>
  </symbol>
  <symbol id="j" overflow="visible">
   <path d="m9.2188-6.8906c-1.0234 0-1.793 0.17188-2.3125 0.51562-0.51172 0.34375-0.76562 0.85547-0.76562 1.5312 0 0.625 0.20703 1.1172 0.625 1.4688 0.41406 0.34375 0.98828 0.51562 1.7188 0.51562 0.92578 0 1.7031-0.32812 2.3281-0.98438 0.63281-0.66406 0.95312-1.4922 0.95312-2.4844v-0.5625zm7.4688-1.8438v8.7344h-4.9219v-2.2656c-0.65625 0.92969-1.3984 1.6055-2.2188 2.0312-0.82422 0.41406-1.8242 0.625-3 0.625-1.5859 0-2.8711-0.45703-3.8594-1.375-0.99219-0.92578-1.4844-2.1289-1.4844-3.6094 0-1.7891 0.61328-3.1016 1.8438-3.9375 1.2383-0.84375 3.1797-1.2656 5.8281-1.2656h2.8906v-0.39062c0-0.76953-0.30859-1.332-0.92188-1.6875-0.61719-0.36328-1.5703-0.54688-2.8594-0.54688-1.0547 0-2.0312 0.10547-2.9375 0.3125-0.89844 0.21094-1.7305 0.52344-2.5 0.9375v-3.7344c1.0391-0.25 2.0859-0.44141 3.1406-0.57812 1.0625-0.13281 2.125-0.20312 3.1875-0.20312 2.7578 0 4.75 0.54688 5.9688 1.6406 1.2266 1.0859 1.8438 2.8555 1.8438 5.3125z"/>
  </symbol>
  <symbol id="c" overflow="visible">
   <path d="m7.7031-19.656v4.3438h5.0469v3.5h-5.0469v6.5c0 0.71094 0.14062 1.1875 0.42188 1.4375s0.83594 0.375 1.6719 0.375h2.5156v3.5h-4.1875c-1.9375 0-3.3125-0.39844-4.125-1.2031-0.80469-0.8125-1.2031-2.1797-1.2031-4.1094v-6.5h-2.4219v-3.5h2.4219v-4.3438z"/>
  </symbol>
  <symbol id="i" overflow="visible">
   <path d="m12.766-13.078v-8.2031h4.9219v21.281h-4.9219v-2.2188c-0.66797 0.90625-1.4062 1.5703-2.2188 1.9844s-1.7578 0.625-2.8281 0.625c-1.8867 0-3.4336-0.75-4.6406-2.25-1.2109-1.5-1.8125-3.4258-1.8125-5.7812 0-2.3633 0.60156-4.2969 1.8125-5.7969 1.207-1.5 2.7539-2.25 4.6406-2.25 1.0625 0 2 0.21484 2.8125 0.64062 0.82031 0.42969 1.5664 1.0859 2.2344 1.9688zm-3.2188 9.9219c1.0391 0 1.8359-0.37891 2.3906-1.1406 0.55078-0.76953 0.82812-1.8828 0.82812-3.3438 0-1.457-0.27734-2.5664-0.82812-3.3281-0.55469-0.76953-1.3516-1.1562-2.3906-1.1562-1.043 0-1.8398 0.38672-2.3906 1.1562-0.55469 0.76172-0.82812 1.8711-0.82812 3.3281 0 1.4609 0.27344 2.5742 0.82812 3.3438 0.55078 0.76172 1.3477 1.1406 2.3906 1.1406z"/>
  </symbol>
  <symbol id="h" overflow="visible">
   <path d="m10.5-3.1562c1.0508 0 1.8516-0.37891 2.4062-1.1406 0.55078-0.76953 0.82812-1.8828 0.82812-3.3438 0-1.457-0.27734-2.5664-0.82812-3.3281-0.55469-0.76953-1.3555-1.1562-2.4062-1.1562-1.0547 0-1.8594 0.38672-2.4219 1.1562-0.55469 0.77344-0.82812 1.8828-0.82812 3.3281 0 1.4492 0.27344 2.5586 0.82812 3.3281 0.5625 0.77344 1.3672 1.1562 2.4219 1.1562zm-3.25-9.9219c0.67578-0.88281 1.4219-1.5391 2.2344-1.9688 0.82031-0.42578 1.7656-0.64062 2.8281-0.64062 1.8945 0 3.4453 0.75 4.6562 2.25 1.207 1.5 1.8125 3.4336 1.8125 5.7969 0 2.3555-0.60547 4.2812-1.8125 5.7812-1.2109 1.5-2.7617 2.25-4.6562 2.25-1.0625 0-2.0078-0.21094-2.8281-0.625-0.8125-0.42578-1.5586-1.0859-2.2344-1.9844v2.2188h-4.8906v-21.281h4.8906z"/>
  </symbol>
  <symbol id="g" overflow="visible">
   <path d="m0.34375-15.312h4.8906l4.125 10.391 3.5-10.391h4.8906l-6.4375 16.766c-0.64844 1.6953-1.4023 2.8828-2.2656 3.5625-0.86719 0.6875-2 1.0312-3.4062 1.0312h-2.8438v-3.2188h1.5312c0.83203 0 1.4375-0.13672 1.8125-0.40625 0.38281-0.26172 0.67969-0.73047 0.89062-1.4062l0.14062-0.42188z"/>
  </symbol>
  <symbol id="f" overflow="visible">
   <path d="m2.5781-20.406h5.25v16.422h9.25v3.9844h-14.5z"/>
  </symbol>
  <symbol id="e" overflow="visible">
   <path d="m2.3594-21.281h4.8906v21.281h-4.8906z"/>
  </symbol>
  <symbol id="u" overflow="visible">
   <path d="m2.3594-15.312h4.8906v15.312h-4.8906zm0-5.9688h4.8906v4h-4.8906z"/>
  </symbol>
  <symbol id="t" overflow="visible">
   <path d="m14.312-14.828v3.7188c-1.043-0.4375-2.0547-0.76562-3.0312-0.98438-0.98047-0.21875-1.9023-0.32812-2.7656-0.32812-0.92969 0-1.6211 0.11719-2.0781 0.34375-0.44922 0.23047-0.67188 0.58984-0.67188 1.0781 0 0.38672 0.17188 0.68359 0.51562 0.89062 0.34375 0.21094 0.95703 0.36719 1.8438 0.46875l0.85938 0.125c2.5078 0.32422 4.1953 0.85156 5.0625 1.5781 0.86328 0.73047 1.2969 1.8711 1.2969 3.4219 0 1.6367-0.60547 2.8672-1.8125 3.6875-1.1992 0.8125-2.9922 1.2188-5.375 1.2188-1.0234 0-2.0742-0.078125-3.1562-0.23438-1.0742-0.15625-2.1797-0.39453-3.3125-0.71875v-3.7188c0.96875 0.48047 1.9609 0.83984 2.9844 1.0781 1.0312 0.23047 2.0781 0.34375 3.1406 0.34375 0.95703 0 1.6758-0.12891 2.1562-0.39062 0.47656-0.26953 0.71875-0.66406 0.71875-1.1875 0-0.4375-0.16797-0.75781-0.5-0.96875-0.33594-0.21875-0.99609-0.38281-1.9844-0.5l-0.85938-0.10938c-2.1797-0.26953-3.7031-0.77344-4.5781-1.5156-0.875-0.73828-1.3125-1.8594-1.3125-3.3594 0-1.625 0.55078-2.8281 1.6562-3.6094 1.1133-0.78906 2.8203-1.1875 5.125-1.1875 0.89453 0 1.8359 0.074219 2.8281 0.21875 1 0.13672 2.082 0.35156 3.25 0.64062z"/>
  </symbol>
  <symbol id="b" overflow="visible">
   <path d="m9.6406-12.188c-1.0859 0-1.9141 0.39062-2.4844 1.1719-0.57422 0.78125-0.85938 1.9062-0.85938 3.375s0.28516 2.5938 0.85938 3.375c0.57031 0.77344 1.3984 1.1562 2.4844 1.1562 1.0625 0 1.875-0.38281 2.4375-1.1562 0.57031-0.78125 0.85938-1.9062 0.85938-3.375s-0.28906-2.5938-0.85938-3.375c-0.5625-0.78125-1.375-1.1719-2.4375-1.1719zm0-3.5c2.6328 0 4.6914 0.71484 6.1719 2.1406 1.4766 1.418 2.2188 3.3867 2.2188 5.9062 0 2.5117-0.74219 4.4805-2.2188 5.9062-1.4805 1.418-3.5391 2.125-6.1719 2.125-2.6484 0-4.7148-0.70703-6.2031-2.125-1.4922-1.4258-2.2344-3.3945-2.2344-5.9062 0-2.5195 0.74219-4.4883 2.2344-5.9062 1.4883-1.4258 3.5547-2.1406 6.2031-2.1406z"/>
  </symbol>
  <symbol id="s" overflow="visible">
   <path d="m12.422-21.281v3.2188h-2.7031c-0.6875 0-1.1719 0.125-1.4531 0.375-0.27344 0.25-0.40625 0.6875-0.40625 1.3125v1.0625h4.1875v3.5h-4.1875v11.812h-4.8906v-11.812h-2.4375v-3.5h2.4375v-1.0625c0-1.6641 0.46094-2.8984 1.3906-3.7031 0.92578-0.80078 2.3672-1.2031 4.3281-1.2031z"/>
  </symbol>
  <symbol id="r" overflow="visible">
   <path d="m16.547-12.766c0.61328-0.94531 1.3477-1.6719 2.2031-2.1719 0.85156-0.5 1.7891-0.75 2.8125-0.75 1.7578 0 3.0977 0.54688 4.0156 1.6406 0.92578 1.0859 1.3906 2.6562 1.3906 4.7188v9.3281h-4.9219v-7.9844-0.35938c0.007813-0.13281 0.015625-0.32031 0.015625-0.5625 0-1.082-0.16406-1.8633-0.48438-2.3438-0.3125-0.48828-0.82422-0.73438-1.5312-0.73438-0.92969 0-1.6484 0.38672-2.1562 1.1562-0.51172 0.76172-0.77344 1.8672-0.78125 3.3125v7.5156h-4.9219v-7.9844c0-1.6953-0.14844-2.7852-0.4375-3.2656-0.29297-0.48828-0.8125-0.73438-1.5625-0.73438-0.9375 0-1.6641 0.38672-2.1719 1.1562-0.51172 0.76172-0.76562 1.8594-0.76562 3.2969v7.5312h-4.9219v-15.312h4.9219v2.2344c0.60156-0.86328 1.2891-1.5156 2.0625-1.9531 0.78125-0.4375 1.6406-0.65625 2.5781-0.65625 1.0625 0 2 0.25781 2.8125 0.76562 0.8125 0.51172 1.4258 1.2305 1.8438 2.1562z"/>
  </symbol>
  <symbol id="q" overflow="visible">
   <path d="m17.75-9.3281v9.3281h-4.9219v-7.1094c0-1.3438-0.03125-2.2656-0.09375-2.7656s-0.16797-0.86719-0.3125-1.1094c-0.1875-0.3125-0.44922-0.55469-0.78125-0.73438-0.32422-0.17578-0.69531-0.26562-1.1094-0.26562-1.0234 0-1.8242 0.39844-2.4062 1.1875-0.58594 0.78125-0.875 1.8711-0.875 3.2656v7.5312h-4.8906v-21.281h4.8906v8.2031c0.73828-0.88281 1.5195-1.5391 2.3438-1.9688 0.83203-0.42578 1.75-0.64062 2.75-0.64062 1.7695 0 3.1133 0.54688 4.0312 1.6406 0.91406 1.0859 1.375 2.6562 1.375 4.7188z"/>
  </symbol>
  <symbol id="p" overflow="visible">
   <path d="m2.5781-20.406h5.875l7.4219 14v-14h4.9844v20.406h-5.875l-7.4219-14v14h-4.9844z"/>
  </symbol>
  <symbol id="o" overflow="visible">
   <path d="m2.1875-5.9688v-9.3438h4.9219v1.5312c0 0.83594-0.007813 1.875-0.015625 3.125-0.011719 1.25-0.015625 2.0859-0.015625 2.5 0 1.2422 0.03125 2.1328 0.09375 2.6719 0.070313 0.54297 0.17969 0.93359 0.32812 1.1719 0.20703 0.32422 0.47266 0.57422 0.79688 0.75 0.32031 0.16797 0.69141 0.25 1.1094 0.25 1.0195 0 1.8203-0.39062 2.4062-1.1719 0.58203-0.78125 0.875-1.8672 0.875-3.2656v-7.5625h4.8906v15.312h-4.8906v-2.2188c-0.74219 0.89844-1.5234 1.5586-2.3438 1.9844-0.82422 0.41406-1.7344 0.625-2.7344 0.625-1.7617 0-3.1055-0.53906-4.0312-1.625-0.92969-1.082-1.3906-2.6602-1.3906-4.7344z"/>
  </symbol>
  <symbol id="n" overflow="visible">
   <path d="m17.75-9.3281v9.3281h-4.9219v-7.1406c0-1.3203-0.03125-2.2344-0.09375-2.7344s-0.16797-0.86719-0.3125-1.1094c-0.1875-0.3125-0.44922-0.55469-0.78125-0.73438-0.32422-0.17578-0.69531-0.26562-1.1094-0.26562-1.0234 0-1.8242 0.39844-2.4062 1.1875-0.58594 0.78125-0.875 1.8711-0.875 3.2656v7.5312h-4.8906v-15.312h4.8906v2.2344c0.73828-0.88281 1.5195-1.5391 2.3438-1.9688 0.83203-0.42578 1.75-0.64062 2.75-0.64062 1.7695 0 3.1133 0.54688 4.0312 1.6406 0.91406 1.0859 1.375 2.6562 1.375 4.7188z"/>
  </symbol>
  <symbol id="m" overflow="visible">
   <path d="m2.5781-20.406h8.7344c2.5938 0 4.582 0.57812 5.9688 1.7344 1.3945 1.1484 2.0938 2.7891 2.0938 4.9219 0 2.1367-0.69922 3.7812-2.0938 4.9375-1.3867 1.1562-3.375 1.7344-5.9688 1.7344h-3.4844v7.0781h-5.25zm5.25 3.8125v5.7031h2.9219c1.0195 0 1.8047-0.25 2.3594-0.75 0.5625-0.5 0.84375-1.2031 0.84375-2.1094 0-0.91406-0.28125-1.6172-0.84375-2.1094-0.55469-0.48828-1.3398-0.73438-2.3594-0.73438z"/>
  </symbol>
  <symbol id="l" overflow="visible">
   <path d="m2.3594-15.312h4.8906v15.031c0 2.0508-0.49609 3.6172-1.4844 4.7031-0.98047 1.082-2.4062 1.625-4.2812 1.625h-2.4219v-3.2188h0.85938c0.92578 0 1.5625-0.21094 1.9062-0.625 0.35156-0.41797 0.53125-1.2461 0.53125-2.4844zm0-5.9688h4.8906v4h-4.8906z"/>
  </symbol>
  <symbol id="k" overflow="visible">
   <path d="m14.719-14.828v3.9844c-0.65625-0.45703-1.3242-0.79688-2-1.0156-0.66797-0.21875-1.3594-0.32812-2.0781-0.32812-1.3672 0-2.4336 0.40234-3.2031 1.2031-0.76172 0.79297-1.1406 1.9062-1.1406 3.3438 0 1.4297 0.37891 2.543 1.1406 3.3438 0.76953 0.79297 1.8359 1.1875 3.2031 1.1875 0.75781 0 1.4844-0.10938 2.1719-0.32812 0.6875-0.22656 1.3203-0.56641 1.9062-1.0156v4c-0.76172 0.28125-1.5391 0.48828-2.3281 0.625-0.78125 0.14453-1.5742 0.21875-2.375 0.21875-2.7617 0-4.9219-0.70703-6.4844-2.125-1.5547-1.4141-2.3281-3.3828-2.3281-5.9062 0-2.5312 0.77344-4.5039 2.3281-5.9219 1.5625-1.4141 3.7227-2.125 6.4844-2.125 0.80078 0 1.5938 0.074219 2.375 0.21875 0.78125 0.13672 1.5547 0.35156 2.3281 0.64062z"/>
  </symbol>
 </defs>
 <g>
  <path d="m219.78 101.05 15.336-36.055c1.8164-4.2695 6.75-6.2578 11.016-4.4414 4.2695 1.8164 6.2578 6.75 4.4414 11.016l-15.336 36.055c-1.3594 3.1953-4.4688 5.1172-7.7344 5.1172-1.0977 0-2.2109-0.21484-3.2852-0.67188-4.2617-1.8203-6.25-6.7539-4.4375-11.02zm-110.38 11.016c1.0703 0.45703 2.1875 0.67188 3.2852 0.67188 3.2656 0 6.375-1.918 7.7344-5.1172l15.336-36.055c1.8164-4.2695-0.17188-9.1992-4.4414-11.016-4.2656-1.8164-9.1992 0.17188-11.016 4.4414l-15.336 36.055c-1.8203 4.2695 0.16797 9.2031 4.4375 11.02zm459.28 0c1.0703 0.45703 2.1875 0.67188 3.2812 0.67188 3.2695 0 6.375-1.918 7.7344-5.1172l15.336-36.055c1.8164-4.2695-0.16797-9.1992-4.4414-11.016-4.2695-1.8164-9.2031 0.17969-11.016 4.4414l-15.336 36.055c-1.8164 4.2695 0.17187 9.2031 4.4414 11.02zm-401.87 104.86c1.0703 0.45703 2.1875 0.67188 3.2852 0.67188 3.2656 0 6.375-1.918 7.7344-5.1172l15.336-36.055c1.8164-4.2695-0.17188-9.1992-4.4414-11.016-4.2617-1.8164-9.1992 0.17578-11.016 4.4414l-15.336 36.055c-1.8203 4.2695 0.16797 9.2031 4.4375 11.02zm344.46 0c1.0703 0.45703 2.1875 0.67188 3.2812 0.67188 3.2695 0 6.375-1.918 7.7344-5.1172l15.336-36.055c1.8164-4.2695-0.16797-9.1992-4.4414-11.016-4.2656-1.8164-9.1992 0.17969-11.016 4.4414l-15.336 36.055c-1.8164 4.2695 0.16797 9.2031 4.4414 11.02zm-287.05 104.85c1.0703 0.46094 2.1875 0.67187 3.2852 0.67187 3.2695 0 6.375-1.9141 7.7344-5.1133l15.336-36.059c1.8164-4.2695-0.17188-9.1992-4.4414-11.016-4.2617-1.8125-9.1992 0.17578-11.016 4.4414l-15.336 36.059c-1.8203 4.2734 0.16797 9.207 4.4375 11.016zm-114.82 0c1.0703 0.46094 2.1875 0.67187 3.2852 0.67187 3.2656 0 6.375-1.9141 7.7344-5.1133l15.336-36.059c1.8164-4.2695-0.17188-9.1992-4.4414-11.016-4.2695-1.8125-9.1992 0.17578-11.016 4.4414l-15.336 36.059c-1.8203 4.2734 0.16797 9.207 4.4375 11.016zm459.28 0c1.0703 0.46094 2.1875 0.67187 3.2812 0.67187 3.2695 0 6.375-1.9141 7.7344-5.1133l15.336-36.059c1.8164-4.2695-0.16797-9.1992-4.4414-11.016-4.2695-1.8164-9.2031 0.17969-11.016 4.4414l-15.336 36.059c-1.8164 4.2734 0.17187 9.207 4.4414 11.016zm-483.59 63.957c-2.293-4.0312-0.88672-9.1602 3.1484-11.453 33.27-18.922 77.977-18.922 111.26 0 28.441 16.172 66.488 16.172 94.801 0.058594 1.957-1.1133 3.9609-2.1484 5.9922-3.1328l-7.1719-60.348c-0.26172-2.2148 0.36719-4.4453 1.75-6.1953s3.4062-2.8828 5.625-3.1406l19.816-2.3008-12.09-14.941c-1.9766-2.4453-2.4258-5.7852-1.1602-8.6641l9.0234-20.543c-5.4844-1.0586-10.891-2.5938-16.145-4.7031-22.836-9.1641-40.539-27.102-49.852-50.508-9.2539-23.258-9.0977-49.145 0.4375-72.898 13.008-32.41 42.242-55.594 75.48-60.352 0.41016-1.1484 0.83594-2.2656 1.2734-3.3633 19.742-49.188 74.031-73.859 121.03-55 32.773 13.156 54.938 45.402 56.477 82.156 0.078126 1.9375-0.51562 3.8438-1.6797 5.3945-1.8008 2.4023-3.2383 4.918-4.2656 7.4883-2.1289 5.293-2.8164 11.105-1.9961 16.809 0.44922 3.1211-0.88672 6.2305-3.4609 8.0547-6.5859 4.6602-11.648 11.059-14.629 18.504-5.8086 14.461-3.1172 30.836 7.0156 42.734 1.668 1.957 2.3477 4.5703 1.8438 7.0938-2.7461 13.723 2.2656 27.805 13.074 36.754 3.168 2.6211 3.9766 7.1484 1.9023 10.699-6.5039 11.168-14.797 20.578-24.25 28.062 2.4023 2.3477 3.2656 6.0078 1.8711 9.2852l-15.336 36.059c-1.3555 3.1992-4.4609 5.1133-7.7344 5.1133-1.0938 0-2.2109-0.21484-3.2812-0.67188-4.2695-1.8086-6.2578-6.7422-4.4414-11.016l11.91-28.004c-12.512 6.1562-26.191 9.4297-40.066 9.4297-11.102 0-22.312-2.082-33.152-6.4375-5.3086-2.1289-10.332-4.7852-15.066-7.8516l-14.246 38.352 2.3242 44.422c15.711 1.457 31.062 5.9648 44.535 13.629 28.383 16.148 66.441 16.156 94.746 0.03125 33.32-18.965 78.051-18.965 111.35-0.011719 4.0312 2.2969 5.4414 7.4258 3.1445 11.457-1.5469 2.7148-4.3828 4.1953-7.3008 4.1992-1.4141 0.003906-2.8438-0.3125-4.1562-1.0547-28.316-16.121-66.375-16.129-94.691-0.003906-8.2383 4.6875-17.18 8.207-26.469 10.578-18.996 4.8477-39.457 4.8438-58.438 0-9.2773-2.3672-18.203-5.8789-26.426-10.559-28.379-16.145-66.434-16.145-94.746-0.03125-8.2266 4.6836-17.152 8.1992-26.426 10.57-9.5273 2.4375-19.418 3.6641-29.309 3.6641-9.8672 0-19.727-1.2227-29.219-3.6445-9.2617-2.3633-18.172-5.8711-26.387-10.539-28.449-16.172-66.477-16.176-94.777-0.078126-1.3125 0.74609-2.7422 1.0625-4.1523 1.0625-2.9219-0.003906-5.7578-1.4922-7.3047-4.2148zm354.42-195.46c1.1875-0.90234 1.4922-2.1016 1.5703-2.7383 0.082031-0.63672 0.070312-1.8789-0.875-3.0391-1.3242-1.6289-3.6406-1.9766-5.3906-0.8125l-37.895 25.355c-2.9414 1.9727-6.8086 1.8828-9.6641-0.22266-2.8477-2.1094-4.0703-5.7734-3.0508-9.1719l21.523-71.727c0.76172-2.5391-0.51953-5.1992-2.9805-6.1875-2.457-0.98047-5.2266 0.039062-6.4297 2.4102l-34.039 66.699c-1.6133 3.1562-5.043 4.9609-8.5469 4.5117-3.5156-0.44922-6.3711-3.0586-7.1367-6.5156l-9.8477-44.504c-0.44922-2.0352-2.4023-3.3789-4.4141-3.1484-1.4961 0.17188-2.375 1.0625-2.7656 1.5742-0.39062 0.51563-1.0078 1.6016-0.76953 3.0859l13.965 86.906c0.25781 1.5938 0.046875 3.2305-0.60156 4.7109l-17.672 40.223 18.473 22.836c1.1797 1.4609 1.8164 3.2422 1.8672 5.0547l21.691-58.391c0.55859-1.5 1.5312-2.8047 2.8047-3.7695zm-116.47 48.949 2.7461-6.25-13.57-84.457c-0.89844-5.5938 0.54688-11.387 3.9688-15.902s8.6133-7.4727 14.242-8.1172c10.633-1.2344 20.41 5.75 22.723 16.211l4.793 21.668 23.41-45.871c5.1797-10.16 17.078-14.605 27.648-10.367 10.586 4.25 16.094 15.691 12.812 26.609l-14.797 49.316 18.453-12.348c8.9961-6.0234 20.945-4.2344 27.781 4.1875 3.5938 4.4297 5.1953 9.9844 4.5078 15.645-0.68359 5.6562-3.5664 10.668-8.1094 14.113l-68.227 51.664-2.3633 6.3594c4.707 3.4219 9.8281 6.2773 15.301 8.4727 32.59 13.074 69.508 0.8125 90.18-29.137-10.879-11.82-16.062-27.84-14.055-43.875-12.129-16.34-14.98-37.73-7.332-56.762 3.5703-8.9141 9.2656-16.762 16.594-22.93-0.28906-6.9766 0.89062-13.957 3.4883-20.434 1.2031-2.9922 2.7383-5.9102 4.5898-8.7109-2.2148-28.996-19.949-54.109-45.777-64.48-38.406-15.406-82.883 5.0781-99.18 45.664-0.89844 2.2422-1.7227 4.6211-2.5156 7.2656-1 3.3203-3.9297 5.6875-7.3867 5.9609-29.234 2.3125-55.477 22.133-66.855 50.492-7.9219 19.738-8.0703 41.199-0.41797 60.434 7.5938 19.086 21.98 33.691 40.5 41.125 5.4531 2.1953 11.102 3.668 16.848 4.4531zm-12.246 78.02 5.6758 47.75c8.9922-2.6797 18.359-4.2578 27.805-4.7109l-2.3516-44.887c-0.058594-1.1445 0.11328-2.2852 0.51562-3.3633l0.21484-0.57031c-1.3438 1.4766-3.1953 2.4492-5.2461 2.6914zm300.95 134.55c-1.3555-0.77344-2.7617-1.4648-4.1562-2.1719-32.793-16.699-75.223-16.004-107.16 2.168-0.050781 0.03125-0.10938 0.066407-0.16406 0.097657-28.305 16.035-66.285 16-94.613-0.11328-33.293-18.926-78.012-18.926-111.36 0.042968-28.312 16.109-66.359 16.117-94.801-0.066406-31.922-18.152-74.332-18.84-107.1-2.168-1.3984 0.70703-2.8008 1.3984-4.1562 2.168-4.0312 2.293-5.4414 7.4219-3.1484 11.453 1.5469 2.7188 4.3828 4.207 7.3008 4.2109 1.4102 0.003907 2.8398-0.31641 4.1523-1.0625 28.301-16.102 66.332-16.102 94.777 0.078126 16.633 9.4609 36.113 14.191 55.609 14.191 19.52 0 39.055-4.7461 55.73-14.242 28.324-16.109 66.371-16.117 94.75 0.039063 33.277 18.934 78 18.938 111.3-0.003907 0.050781-0.027343 0.10938-0.066406 0.16406-0.097656 28.301-16.047 66.281-16.02 94.559 0.082032 1.3125 0.74609 2.7422 1.0586 4.1562 1.0586 2.918-0.003906 5.7539-1.4883 7.3008-4.2031 2.2969-4.0312 0.88672-9.1641-3.1445-11.461zm0 77.473c-33.289-18.945-78.027-18.949-111.35 0.015625-28.305 16.121-66.363 16.117-94.746-0.03125-33.281-18.938-78.016-18.938-111.36 0.039062-28.312 16.109-66.359 16.109-94.801-0.058593-33.281-18.922-77.988-18.922-111.26 0-4.0312 2.293-5.4414 7.4219-3.1484 11.453 2.2969 4.0352 7.4258 5.4375 11.453 3.1484 28.301-16.102 66.332-16.102 94.777 0.078125 16.629 9.457 36.113 14.188 55.605 14.188 19.52 0 39.055-4.7422 55.734-14.234 28.312-16.109 66.367-16.109 94.746 0.03125 33.281 18.934 78.008 18.945 111.33-0.023437 28.324-16.121 66.379-16.117 94.691 0 4.0234 2.2812 9.1602 0.88672 11.457-3.1445 2.3008-4.0352 0.89062-9.1641-3.1406-11.461z"/>
  <use x="70" y="644" xlink:href="#v"/>
  <use x="90.550781" y="644" xlink:href="#d"/>
  <use x="104.359375" y="644" xlink:href="#a"/>
  <use x="123.347656" y="644" xlink:href="#j"/>
  <use x="142.242188" y="644" xlink:href="#c"/>
  <use x="155.628906" y="644" xlink:href="#a"/>
  <use x="174.617188" y="644" xlink:href="#i"/>
  <use x="204.410156" y="644" xlink:href="#h"/>
  <use x="224.453125" y="644" xlink:href="#g"/>
  <use x="252.453125" y="644" xlink:href="#f"/>
  <use x="270.292969" y="644" xlink:href="#e"/>
  <use x="279.890625" y="644" xlink:href="#u"/>
  <use x="289.488281" y="644" xlink:href="#t"/>
  <use x="306.15625" y="644" xlink:href="#b"/>
  <use x="325.390625" y="644" xlink:href="#e"/>
  <use x="334.988281" y="644" xlink:href="#a"/>
  <use x="70" y="672" xlink:href="#s"/>
  <use x="82.183594" y="672" xlink:href="#d"/>
  <use x="95.992188" y="672" xlink:href="#b"/>
  <use x="115.226562" y="672" xlink:href="#r"/>
  <use x="154.152344" y="672" xlink:href="#c"/>
  <use x="167.535156" y="672" xlink:href="#q"/>
  <use x="187.46875" y="672" xlink:href="#a"/>
  <use x="216.207031" y="672" xlink:href="#p"/>
  <use x="239.640625" y="672" xlink:href="#b"/>
  <use x="258.878906" y="672" xlink:href="#o"/>
  <use x="278.8125" y="672" xlink:href="#n"/>
  <use x="308.492188" y="672" xlink:href="#m"/>
  <use x="329.015625" y="672" xlink:href="#d"/>
  <use x="342.820312" y="672" xlink:href="#b"/>
  <use x="362.058594" y="672" xlink:href="#l"/>
  <use x="371.65625" y="672" xlink:href="#a"/>
  <use x="390.648438" y="672" xlink:href="#k"/>
  <use x="407.242188" y="672" xlink:href="#c"/>
 </g>
</svg>
